<svg version="1.1" xmlns="http://www.w3.org/2000/svg" xmlns:xlink="http://www.w3.org/1999/xlink" width="1560" height="804"><defs/><g><path fill="none" stroke="#02063B" paint-order="fill stroke markers" d=" M 68 491.705111053314 L 69 492.64413789482 L 70 493.567471725569 L 71 494.4749526909021 L 72 495.36642368073063 L 73 496.24173035673596 L 74 497.1007211790898 L 75 497.9432474326902 L 76 498.76916325290813 L 77 499.5783256508402 L 78 500.37059453806495 L 79 501.1458327508951 L 80 501.90390607412496 L 81 502.64468326426675 L 82 503.36803607227205 L 83 504.0738392657359 L 84 504.7619706505775 L 85 505.4323110921955 L 86 506.08474453609375 L 87 506.7191580279732 L 88 507.33544173328767 L 89 507.93348895625917 L 90 508.51319615834973 L 91 509.0744629761872 L 92 509.61719223894033 L 93 510.1412899851424 L 94 510.6466654789581 L 95 511.1332312258924 L 96 511.6009029879387 L 97 512.0495997981621 L 98 512.479243974718 L 99 512.8897611342995 L 100 513.2810802050169 L 101 513.6531334387009 L 102 514.0058564226324 L 103 514.3391880906937 L 104 514.6530707339414 L 105 514.9474500105962 L 106 515.2222749554525 L 107 515.4774979887006 L 108 515.7130749241649 L 109 515.928964976953 L 110 516.1251307705179 L 111 516.3015383431274 L 112 516.4581571537451 L 113 516.5949600873168 L 114 516.7119234594662 L 115 516.809027020594 L 116 516.8862539593842 L 117 516.9435909057152 L 118 516.9810279329732 L 119 516.9985585597722 L 120 516.9961797510748 L 121 516.9738919187191 L 122 516.931698921346 L 123 516.8696080637318 L 124 516.7876300955238 L 125 516.6857792093787 L 126 516.5640730385057 L 127 516.4225326536139 L 128 516.261182559264 L 129 516.0800506896259 L 130 515.8791684036431 L 131 515.658570479603 L 132 515.4182951091157 L 133 515.1583838905027 L 134 514.8788818215945 L 135 514.5798372919402 L 136 514.2613020744303 L 137 513.9233313163331 L 138 513.5659835297474 L 139 513.1893205814722 L 140 512.7934076822958 L 141 512.3783133757063 L 142 511.94410952602465 L 143 511.4908713059631 L 144 511.01867718361035 L 145 510.5276089088469 L 146 510.0177514991919 L 147 509.4891932250839 L 148 508.94202559459916 L 149 508.376343337609 L 150 507.79224438937916 L 151 507.1898298736149 L 152 506.5692040849534 L 153 505.9304744709076 L 154 505.273751613264 L 155 504.5991492089379 L 156 503.9067840502893 L 157 503.196776004903 L 158 502.46924799483605 L 159 501.7243259753368 L 160 500.9621389130381 L 161 500.18281876363005 L 162 499.38650044901465 L 163 498.57332183394715 L 164 497.74342370216755 L 165 496.89694973202745 L 166 496.03404647161506 L 167 495.1548633133838 L 168 494.2595524682883 L 169 493.3482689394325 L 170 492.42117049523415 L 171 491.4784176421109 L 172 490.52017359669236 L 173 489.5466042575622 L 174 488.5578781765372 L 175 487.55416652948577 L 176 486.5356430866929 L 177 485.50248418277573 L 178 484.45486868615484 L 179 483.3929779680876 L 180 482.31699587126764 L 181 481.2271086779961 L 182 480.1235050779321 L 183 479.0063761354241 L 184 477.87591525643217 L 185 476.7323181550438 L 186 475.5757828195905 L 187 474.4065094783701 L 188 473.22470056498247 L 189 472.0305606832819 L 190 470.824296571955 L 191 469.6061170687281 L 192 468.3762330742121 L 193 467.1348575153894 L 194 465.88220530875043 L 195 464.6184933230858 L 196 463.34394034193997 L 197 462.05876702573426 L 198 460.76319587356386 L 199 459.45745118467744 L 200 458.14175901964467 L 201 456.8163471612189 L 202 455.48144507490156 L 203 454.13728386921525 L 204 452.7840962556927 L 205 451.4221165085878 L 206 450.0515804243163 L 207 448.6727252806329 L 208 447.2857897955518 L 209 445.8910140860181 L 210 444.4886396263371 L 211 443.07890920636794 L 212 441.6620668894903 L 213 440.2383579703502 L 214 438.80802893239286 L 215 437.3713274051891 L 216 435.92850212156435 L 217 434.4798028745358 L 218 433.02548047406634 L 219 431.5657867036426 L 220 430.10097427668404 L 221 428.6312967927913 L 222 427.1570086938412 L 223 425.6783652199356 L 224 424.1956223652125 L 225 422.70903683352617 L 226 421.21886599400483 L 227 419.72536783649264 L 228 418.22880092688473 L 229 416.7294243623622 L 230 415.22749772653515 L 231 413.72328104450185 L 232 412.2170347378307 L 233 410.70901957947467 L 234 409.1994966486237 L 235 407.688727285505 L 236 406.1769730461378 L 237 404.66449565705045 L 238 403.15155696996874 L 239 401.638418916482 L 240 400.1253434626952 L 241 398.6125925638756 L 242 397.1004281191011 L 243 395.58911192591813 L 244 394.07890563501724 L 245 392.57007070493427 L 246 391.06286835678435 L 247 389.5575595290375 L 248 388.0544048323431 L 249 386.55366450441056 L 250 385.05559836495524 L 251 383.5604657707164 L 252 382.0685255705556 L 253 380.58003606064227 L 254 379.09525493973587 L 255 377.61443926457116 L 256 376.13784540535414 L 257 374.6657290013778 L 258 373.1983449167636 L 259 371.73594719633724 L 260 370.2787890216469 L 261 368.82712266713014 L 262 367.3811994564384 L 263 365.94126971892587 L 264 364.50758274631056 L 265 363.0803867495149 L 266 361.6599288156937 L 267 360.2464548654564 L 268 358.8402096102915 L 269 357.4414365102001 L 270 356.05037773154635 L 271 354.6672741051318 L 272 353.2923650845007 L 273 351.9258887044841 L 274 350.5680815399894 L 275 349.2191786650428 L 276 347.8794136120911 L 277 346.5490183315714 L 278 345.2282231517534 L 279 343.9172567388636 L 280 342.61634605749674 L 281 341.3257163313218 L 282 340.0455910040898 L 283 338.77619170094937 L 284 337.5177381900773 L 285 336.2704483446305 L 286 335.03453810502623 L 287 333.8102214415569 L 288 332.5977103173457 L 289 331.39721465164996 L 290 330.20894228351864 L 291 329.033098935809 L 292 327.8698881795708 L 293 326.71951139880235 L 294 325.5821677555853 L 295 324.45805415560426 L 296 323.347365214057 L 297 322.25029322196093 L 298 321.16702811286257 L 299 320.0977574299544 L 300 319.0426662936063 L 301 318.0019373693159 L 302 316.97575083608405 L 303 315.96428435522097 L 304 314.96771303958826 L 305 313.98620942328165 L 306 313.0199434317611 L 307 312.0690823524313 L 308 311.1337908056804 L 309 310.2142307163789 L 310 309.31056128584663 L 311 308.42293896429 L 312 307.5515174237165 L 313 306.69644753132997 L 314 305.8578773234106 L 315 305.03595197968673 L 316 304.2308137981993 L 317 303.44260217066676 L 318 302.6714535583522 L 319 301.9175014684382 L 320 301.1808764309131 L 321 300.46170597597245 L 322 299.76011461194025 L 323 299.0762238037129 L 324 298.4101519517304 L 325 297.762014371478 L 326 297.13192327352164 L 327 296.51998774408145 L 328 295.92631372614574 L 329 295.3510040011295 L 330 294.79415817107997 L 331 294.2558726414328 L 332 293.7362406043215 L 333 293.2353520224435 L 334 292.753293613485 L 335 292.2901488351077 L 336 291.84599787049996 L 337 291.4209176144951 L 338 291.0149816602585 L 339 290.6282602865466 L 340 290.26082044553993 L 341 289.9127257512515 L 342 289.58403646851383 L 343 289.27480950254517 L 344 288.9850983890977 L 345 288.714953285189 L 346 288.4644209604185 L 347 288.23354478887046 L 348 288.02236474160446 L 349 287.8309173797356 L 350 287.65923584810446 L 351 287.5073498695392 L 352 287.3752857397093 L 353 287.26306632257325 L 354 287.17071104642025 L 355 287.0982359005065 L 356 287.045653432287 L 357 287.0129727452433 L 358 287.0001994973075 L 359 287.00733589988255 L 360 287.03438071745956 L 361 287.0813292678315 L 362 287.14817342290416 L 363 287.2349016101028 L 364 287.3414988143762 L 365 287.46794658079614 L 366 287.614223017752 L 367 287.78030280074125 L 368 287.96615717675377 L 369 288.1717539692496 L 370 288.3970575837298 L 371 288.64202901389854 L 372 288.90662584841664 L 373 289.19080227824367 L 374 289.4945091045691 L 375 289.8176937473297 L 376 290.16030025431303 L 377 290.52226931084374 L 378 290.9035382500531 L 379 291.30404106372794 L 380 291.7237084137391 L 381 292.1624676440449 L 382 292.6202427932708 L 383 293.0969546078599 L 384 293.59252055579395 L 385 294.10685484088225 L 386 294.6398684176149 L 387 295.19146900657944 L 388 295.7615611104367 L 389 296.3500460304542 L 390 296.95682188359365 L 391 297.5817836201494 L 392 298.22482304193596 L 393 298.88582882101974 L 394 299.5646865189931 L 395 300.2612786067868 L 396 300.97548448501755 L 397 301.70718050486727 L 398 302.45623998948963 L 399 303.2225332559419 L 400 304.00592763763643 L 401 304.8062875073086 L 402 305.6234743004983 L 403 306.45734653953866 L 404 307.3077598580502 L 405 308.17456702593427 L 406 309.05761797486304 L 407 309.95675982426013 L 408 310.8718369077687 L 409 311.8026908002016 L 410 312.749160344969 L 411 313.7110816819793 L 412 314.6882882760075 L 413 315.6806109455273 L 414 316.6878778920014 L 415 317.7099147296238 L 416 318.7465445155117 L 417 319.7975877803383 L 418 320.8628625594049 L 419 321.9421844241433 L 420 323.0353665140456 L 421 324.1422195690153 L 422 325.262551962133 L 423 326.39616973283273 L 424 327.5428766204815 L 425 328.7024740983578 L 426 329.87476140802204 L 427 331.05953559407294 L 428 332.2565915392854 L 429 333.46572200012156 L 430 334.6867176426105 L 431 335.91936707858963 L 432 337.163456902302 L 433 338.4187717273429 L 434 339.68509422394857 L 435 340.9622051566228 L 436 342.2498834220921 L 437 343.54790608758526 L 438 344.85604842942865 L 439 346.1740839719523 L 440 347.5017845266997 L 441 348.8389202319324 L 442 350.1852595924266 L 443 351.54056951955056 L 444 352.90461537161934 L 445 354.27716099451703 L 446 355.6579687625821 L 447 357.04679961974716 L 448 358.44341312092547 L 449 359.8475674736394 L 450 361.2590195798808 L 451 362.6775250781984 L 452 364.10283838600355 L 453 365.53471274208687 L 454 366.97290024934017 L 455 368.4171519176736 L 456 369.86721770712353 L 457 371.3228465711405 L 458 372.7837865000528 L 459 374.24978456469677 L 460 375.7205869602046 L 461 377.1959390499466 L 462 378.6755854096142 L 463 380.1592698714424 L 464 381.6467355685585 L 465 383.1377249794532 L 466 384.6319799725652 L 467 386.12924185096995 L 468 387.6292513971682 L 469 389.1317489179631 L 470 390.6364742894202 L 471 392.1431670019031 L 472 393.6515662051736 L 473 395.1614107535529 L 474 396.6724392511328 L 475 398.184390097031 L 476 399.6970015306808 L 477 401.2100116771496 L 478 402.72315859247675 L 479 404.2361803090228 L 480 405.74881488082406 L 481 407.2608004289418 L 482 408.7718751868019 L 483 410.28177754551274 L 484 411.7902460991575 L 485 413.29701969005123 L 486 414.8018374539533 L 487 416.3044388652315 L 488 417.8045637819651 L 489 419.3019524909836 L 490 420.7963457528296 L 491 422.2874848466406 L 492 423.77511161494095 L 493 425.25896850833533 L 494 426.7387986300988 L 495 428.21434578065157 L 496 429.68535450191496 L 497 431.1515701215383 L 498 432.6127387969893 L 499 434.0686075595017 L 500 435.5189243578707 L 501 436.9634381020905 L 502 438.4018987068247 L 503 439.8340571347026 L 504 441.25966543943554 L 505 442.6784768087419 L 506 444.0902456070783 L 507 445.49472741816527 L 508 446.8916790873026 L 509 448.2808587634663 L 510 449.6620259411796 L 511 451.0349415021511 L 512 452.39936775667286 L 513 453.755068484771 L 514 455.1018089771019 L 515 456.4393560755866 L 516 457.76747821377796 L 517 459.08594545694973 L 518 460.3945295419061 L 519 461.6930039164989 L 520 462.9811437788516 L 521 464.25872611627744 L 522 465.5255297438897 L 523 466.78133534289515 L 524 468.0259254985635 L 525 469.2590847378687 L 526 470.48059956679265 L 527 471.6902585072873 L 528 472.88785213388735 L 529 474.0731731099671 L 530 475.2460162236372 L 531 476.4061784232713 L 532 477.55345885266075 L 533 478.6876588857881 L 534 479.80858216121453 L 535 480.9160346160761 L 536 482.00982451968065 L 537 483.0897625067023 L 538 484.15566160996525 L 539 485.20733729281375 L 540 486.2446074810596 L 541 487.2672925945049 L 542 488.2752155780323 L 543 489.2682019322576 L 544 490.24607974374135 L 545 491.2086797147508 L 546 492.15583519257063 L 547 493.0873821983554 L 548 494.003159455518 L 549 494.90300841765185 L 550 495.7867732959793 L 551 496.65430108632313 L 552 497.5054415955957 L 553 498.34004746780147 L 554 499.1579742095488 L 555 499.9590802150653 L 556 500.7432267907139 L 557 501.5102781790045 L 558 502.2601015820976 L 559 502.9925671847949 L 560 503.7075481770141 L 561 504.4049207757433 L 562 505.08456424647113 L 563 505.7463609240895 L 564 506.3901962332642 L 565 507.0159587082715 L 566 507.6235400122959 L 567 508.21283495618593 L 568 508.78374151666577 L 569 509.3361608539978 L 570 509.869997329095 L 571 510.3851585200782 L 572 510.88155523827743 L 573 511.3591015436725 L 574 511.8177147597718 L 575 512.2573154879257 L 576 512.6778276210731 L 577 513.0791783569172 L 578 513.4612982105295 L 579 513.8241210263807 L 580 514.167583989792 L 581 514.4916276378121 L 582 514.7961958695109 L 583 515.0812359556921 L 584 515.3466985480222 L 585 515.5925376875742 L 586 515.8187108127843 L 587 516.0251787668204 L 588 516.2119058043613 L 589 516.3788595977852 L 590 516.5260112427666 L 591 516.65333526328 L 592 516.7608096160113 L 593 516.8484156941732 L 594 516.9161383307274 L 595 516.9639658010099 L 596 516.9918898247608 L 597 516.9999055675584 L 598 516.9880116416552 L 599 516.9562101062197 L 600 516.9045064669783 L 601 516.8329096752627 L 602 516.7414321264608 L 603 516.6300896578697 L 604 516.4989015459546 L 605 516.3478905030108 L 606 516.1770826732326 L 607 515.9865076281858 L 608 515.7761983616889 L 609 515.5461912841008 L 610 515.2965262160168 L 611 515.027246381375 L 612 514.7383983999728 L 613 514.4300322793955 L 614 514.1022014063594 L 615 513.7549625374681 L 616 513.3883757893872 L 617 513.0025046284355 L 618 512.5974158595982 L 619 512.1731796149605 L 620 511.72986934156614 L 621 511.2675617887013 L 622 510.78633699460755 L 623 510.28627827262477 L 624 509.7674721967674 L 625 509.2300085867362 L 626 508.6739804923674 L 627 508.0994841775241 L 628 507.5066191034298 L 629 506.8954879114487 L 630 506.26619640531624 L 631 505.6188535328208 L 632 504.9535713669427 L 633 504.27046508645043 L 634 503.5696529559606 L 635 502.8512563054627 L 636 502.11539950931365 L 637 501.3622099647053 L 638 500.59181806960817 L 639 499.80435720019625 L 640 498.99996368775544 L 641 498.1787767950813 L 642 497.3409386923688 L 643 496.48659443259817 L 644 495.61589192642293 L 645 494.7289819165618 L 646 493.8260179517014 L 647 492.9071563599127 L 648 491.97255622158605 L 649 491.0223793418903 L 650 490.05679022275933 L 651 489.07595603441274 L 652 488.0800465864138 L 653 487.06923429827077 L 654 486.0436941695864 L 655 485.00360374976015 L 656 483.94914310725017 L 657 482.8804947983982 L 658 481.79784383582404 L 659 480.70137765639413 L 660 479.5912860887721 L 661 478.4677613205535 L 662 477.330997864993 L 663 476.18119252732873 L 664 475.0185443707095 L 665 473.8432546817321 L 666 472.6555269355927 L 667 471.4555667608595 L 668 470.24358190387306 L 669 469.0197821927792 L 670 467.7843795012023 L 671 466.53758771156424 L 672 465.27962267805503 L 673 464.0107021892628 L 674 462.731045930468 L 675 461.44087544561063 L 676 460.1404140989343 L 677 458.82988703631594 L 678 457.50952114628626 L 679 456.1795450207499 L 680 454.8401889154094 L 681 453.4916847099014 L 682 452.1342658676524 L 683 450.7681673954589 L 684 449.39362580280203 L 685 448.01087906090095 L 686 446.62016656151343 L 687 445.2217290754905 L 688 443.81580871109185 L 689 442.40264887207127 L 690 440.9824942155359 L 691 439.5555906095895 L 692 438.12218509076604 L 693 436.6825258212602 L 694 435.23686204596464 L 695 433.7854440493181 L 696 432.3285231119745 L 697 430.86635146729884 L 698 429.3991822576993 L 699 427.927269490801 L 700 426.4508679954701 L 701 424.9702333776961 L 702 423.4856219763388 L 703 421.9972908187499 L 704 420.50549757627357 L 705 419.0105005196371 L 706 417.51255847423664 L 707 416.011930775327 L 708 414.50887722312456 L 709 413.00365803782796 L 710 411.49653381456676 L 711 409.9877654782857 L 712 408.47761423857037 L 713 406.96634154442575 L 714 405.45420903901163 L 715 403.941478514345 L 716 402.428411865976 L 717 400.91527104764765 L 718 399.4023180259437 L 719 397.88981473493504 L 720 396.378023030832 L 721 394.86720464664893 L 722 393.3576211468919 L 723 391.84953388227444 L 724 390.3432039444701 L 725 388.8388921209107 L 726 387.33685884963614 L 727 385.83736417420624 L 728 384.34066769867945 L 729 382.84702854266834 L 730 381.35670529647894 L 731 379.8699559763409 L 732 378.38703797973886 L 733 376.90820804084905 L 734 375.4337221860919 L 735 373.96383568980593 L 736 372.4988030300539 L 737 371.038877844565 L 738 369.58431288682294 L 739 368.1353599823079 L 740 366.6922699848975 L 741 365.2552927334385 L 742 363.8246770084918 L 743 362.40067048926176 L 744 360.9835197107165 L 745 359.5734700209049 L 746 358.1707655384813 L 747 356.775649110441 L 748 355.3883622700771 L 749 354.0091451951641 L 750 352.6382366663762 L 751 351.27587402594884 L 752 349.92229313658714 L 753 348.57772834063206 L 754 347.24241241948863 L 755 345.916576553326 L 756 344.60045028105304 L 757 343.2942614605791 L 758 341.9982362293654 L 759 340.71259896527397 L 760 339.43757224772247 L 761 338.173376819149 L 762 336.92023154679555 L 763 335.67835338481603 L 764 334.4479573367152 L 765 333.2292564181263 L 766 332.0224616199315 L 767 330.8277818717339 L 768 329.64542400568604 L 769 328.4755927206809 L 770 327.3184905469137 L 771 326.1743178108181 L 772 325.04327260038383 L 773 323.9255507308621 L 774 322.82134571086516 L 775 321.73084870886413 L 776 320.65424852009255 L 777 319.59173153386087 L 778 318.5434817012867 L 779 317.5096805034485 L 780 316.49050691996604 L 781 315.4861373980135 L 782 314.49674582177255 L 783 313.522503482327 L 784 312.5635790480086 L 785 311.62013853519545 L 786 310.6923452795698 L 787 309.78035990784065 L 788 308.88434030993403 L 789 308.00444161165865 L 790 307.1408161478489 L 791 306.29361343599186 L 792 305.46298015034074 L 793 304.6490600965228 L 794 303.8519941866418 L 795 303.0719204148822 L 796 302.308973833619 L 797 301.56328653003595 L 798 300.83498760325796 L 799 300.1242031420003 L 800 299.43105620273906 L 801 298.7556667884071 L 802 298.0981518276174 L 803 297.4586251544205 L 804 296.83719748859573 L 805 296.2339764164833 L 806 295.64906637235765 L 807 295.08256862034693 L 808 294.534581236902 L 809 294.005199093816 L 810 293.4945138417997 L 811 293.0026138946141 L 812 292.5295844137638 L 813 292.07550729375316 L 814 291.64046114790756 L 815 291.22452129476414 L 816 290.8277597450313 L 817 290.450245189122 L 818 290.0920429852615 L 819 289.7532151481722 L 820 289.43382033833694 L 821 289.13391385184315 L 822 288.8535476108099 L 823 288.59277015439864 L 824 288.3516266304095 L 825 288.1301587874653 L 826 287.92840496778337 L 827 287.7464001005377 L 828 287.58417569581167 L 829 287.4417598391427 L 830 287.31917718665994 L 831 287.21644896081557 L 832 287.1335929467107 L 833 287.07062348901616 L 834 287.027551489489 L 835 287.0043844050853 L 836 287.0011262466691 L 837 287.01777757831775 L 838 287.0543355172246 L 839 287.11079373419796 L 840 287.1871424547567 L 841 287.2833684608228 L 842 287.3994550930096 L 843 287.53538225350576 L 844 287.6911264095552 L 845 287.8666605975311 L 846 288.0619544276038 L 847 288.27697408900247 L 848 288.5116823558686 L 849 288.76603859370056 L 850 289.03999876638903 L 851 289.33351544384044 L 852 289.64653781018865 L 853 289.97901167259255 L 854 290.33087947061836 L 855 290.70208028620493 L 856 291.09254985421023 L 857 291.5022205735375 L 858 291.931021518839 L 859 292.378878452795 L 860 292.84571383896633 L 861 293.3314468552182 L 862 293.8359934077125 L 863 294.359266145467 L 864 294.9011744754784 L 865 295.46162457840586 L 866 296.0405194248143 L 867 296.6377587919727 L 868 297.2532392812055 L 869 297.88685433579354 L 870 298.53849425942224 L 871 299.2080462351729 L 872 299.89539434505457 L 873 300.60041959007265 L 874 301.32299991083073 L 875 302.06301020866266 L 876 302.8203223672905 L 877 303.5948052750049 L 878 304.38632484736456 L 879 305.19474405040944 L 880 306.0199229243855 L 881 306.86171860797543 L 882 307.71998536303175 L 883 308.5945745998088 L 884 309.485334902687 L 885 310.3921120563872 L 886 311.3147490726698 L 887 312.2530862175142 L 888 313.2069610387722 L 889 314.1762083942936 L 890 315.16066048051687 L 891 316.1601468615203 L 892 317.17449449852967 L 893 318.20352777987546 L 894 319.24706855139647 L 895 320.30493614728323 L 896 321.37694742135585 L 897 322.46291677877264 L 898 323.56265620816055 L 899 324.6759753141659 L 900 325.80268135041683 L 901 326.9425792528931 L 902 328.0954716736972 L 903 329.26115901522047 L 904 330.4394394646991 L 905 331.63010902915335 L 906 332.832961570705 L 907 334.0477888422647 L 908 335.2743805235858 L 909 336.51252425767655 L 910 337.7620056875645 L 911 339.0226084934088 L 912 340.29411442995 L 913 341.5763033642945 L 914 342.8689533140263 L 915 344.1718404856376 L 916 345.4847393132744 L 917 346.80742249778734 L 918 348.13966104608403 L 919 349.48122431077405 L 920 350.8318800300999 L 921 352.1913943681492 L 922 353.5595319553366 L 923 354.9360559291536 L 924 356.320727975176 L 925 357.7133083683229 L 926 359.113556014359 L 927 360.52122849163555 L 928 361.9360820930596 L 929 363.3578718682867 L 930 364.7863516661291 L 931 366.22127417717036 L 932 367.66239097658206 L 933 369.1094525671329 L 934 370.5622084223835 L 935 372.02040703006 L 936 373.48379593559685 L 937 374.9521217858444 L 938 376.425130372931 L 939 377.90256667827356 L 940 379.38417491672874 L 941 380.86969858087565 L 942 382.3588804854247 L 943 383.8514628117436 L 944 385.34718715249335 L 945 386.84579455636464 L 946 388.34702557291035 L 947 389.8506202974633 L 948 391.35631841613275 L 949 392.86385925087285 L 950 394.3729818046119 L 951 395.8834248064391 L 952 397.3949267568375 L 953 398.90722597295655 L 954 400.4200606339176 L 955 401.93316882614107 L 956 403.4462885886917 L 957 404.95915795863107 L 958 406.4715150163706 L 959 407.9830979310174 L 960 409.4936450057041 L 961 411.0028947228957 L 962 412.5105857896656 L 963 414.0164571829335 L 964 415.52024819465424 L 965 417.0216984769546 L 966 418.5205480872064 L 967 420.0165375330297 L 968 421.5094078172187 L 969 422.99890048258044 L 970 424.4847576566813 L 971 425.96672209649216 L 972 427.4445372329236 L 973 428.9179472152463 L 974 430.3866969553843 L 975 431.8505321720791 L 976 433.30919943491216 L 977 434.7624462081807 L 978 436.21002089461933 L 979 437.65167287895764 L 980 439.08715257130893 L 981 440.5162114503812 L 982 441.93860210650337 L 983 443.3540782844582 L 984 444.76239492611603 L 985 446.16330821286135 L 986 447.5565756078043 L 987 448.9419558977711 L 988 450.3192092350637 L 989 451.688097178985 L 990 453.04838273711897 L 991 454.3998304063608 L 992 455.74220621368954 L 993 457.07527775667415 L 994 458.3988142437097 L 995 459.7125865339735 L 996 461.01636717709556 L 997 462.30993045253734 L 998 463.59305240866905 L 999 464.86551090154256 L 1000 466.1270856333506 L 1001 467.3775581905666 L 1002 468.61671208175767 L 1003 469.84433277506554 L 1004 471.06020773534783 L 1005 472.2641264609738 L 1006 473.4558805202686 L 1007 474.6352635875975 L 1008 475.8020714790871 L 1009 476.9561021879755 L 1010 478.0971559195847 L 1011 479.22503512591135 L 1012 480.33954453982676 L 1013 481.440491208884 L 1014 482.5276845287226 L 1015 483.60093627606784 L 1016 484.66006064131767 L 1017 485.7048742607107 L 1018 486.73519624807216 L 1019 487.7508482261301 L 1020 488.7516543573976 L 1021 489.73744137461506 L 1022 490.70803861074717 L 1023 491.6632780285308 L 1024 492.602994249566 L 1025 493.5270245829488 L 1026 494.43520905343644 L 1027 495.32739042914375 L 1028 496.20341424876483 L 1029 497.0631288483138 L 1030 497.9063853873831 L 1031 498.73303787491085 L 1032 499.54294319445626 L 1033 500.3359611289775 L 1034 501.1119543851063 L 1035 501.8707886169184 L 1036 502.6123324491914 L 1037 503.3364575001501 L 1038 504.04303840369266 L 1039 504.73195283109527 L 1040 505.4030815121903 L 1041 506.05630825601537 L 1042 506.69151997092933 L 1043 507.3086066841914 L 1044 507.9074615610007 L 1045 508.4879809229921 L 1046 509.050064266186 L 1047 509.59361427838803 L 1048 510.11853685603694 L 1049 510.62474112049625 L 1050 511.112139433788 L 1051 511.580647413765 L 1052 512.0301839487202 L 1053 512.4606712114287 L 1054 512.8720346726229 L 1055 513.2642031138944 L 1056 513.6371086400244 L 1057 513.9906866907382 L 1058 514.3248760518828 L 1059 514.639618866024 L 1060 514.9348606424633 L 1061 515.2105502666722 L 1062 515.4666400091413 L 1063 515.7030855336436 L 1064 515.9198459049101 L 1065 516.1168835957171 L 1066 516.2941644933832 L 1067 516.4516579056749 L 1068 516.5893365661207 L 1069 516.7071766387313 L 1070 516.8051577221264 L 1071 516.8832628530668 L 1072 516.9414785093911 L 1073 516.979794612357 L 1074 516.9982045283855 L 1075 516.9967050702106 L 1076 516.97529649743 L 1077 516.9339825164604 L 1078 516.8727702798963 L 1079 516.7916703852711 L 1080 516.6906968732228 L 1081 516.5698672250628 L 1082 516.4292023597498 L 1083 516.2687266302677 L 1084 516.08846781941 L 1085 515.8884571349693 L 1086 515.6687292043345 L 1087 515.4293220684959 L 1088 515.1702771754597 L 1089 514.891639373071 L 1090 514.5934569012509 L 1091 514.2757813836437 L 1092 513.9386678186796 L 1093 513.5821745700538 L 1094 513.2063633566207 L 1095 512.8112992417103 L 1096 512.3970506218623 L 1097 511.96368921498583 L 1098 511.511290047943 L 1099 511.0399314435592 L 1100 510.54969500706386 L 1101 510.04066561196146 L 1102 509.51293138533856 L 1103 508.9665836926059 L 1104 508.40171712168086 L 1105 507.8184294666115 L 1106 507.21682171064555 L 1107 506.59699800874773 L 1108 505.95906566956774 L 1109 505.30313513686144 L 1110 504.62931997037106 L 1111 503.9377368261637 L 1112 503.22850543643585 L 1113 502.50174858878404 L 1114 501.7575921049469 L 1115 500.996164819022 L 1116 500.217598555161 L 1117 499.4220281047475 L 1118 498.60959120306063 L 1119 497.7804285054295 L 1120 496.9346835628814 L 1121 496.0725027972898 L 1122 495.19403547602434 L 1123 494.29943368610833 L 1124 493.3888523078888 L 1125 492.46244898822147 L 1126 491.5203841131789 L 1127 490.56282078028255 L 1128 489.58992477026595 L 1129 488.6018645183741 L 1130 487.59881108520165 L 1131 486.58093812707875 L 1132 485.54842186600547 L 1133 484.5014410591434 L 1134 483.4401769678672 L 1135 482.3648133263841 L 1136 481.2755363099238 L 1137 480.1725345025065 L 1138 479.05599886429405 L 1139 477.92612269852884 L 1140 476.78310161806843 L 1141 475.62713351151905 L 1142 474.45841850897574 L 1143 473.2771589473744 L 1144 472.08355933546113 L 1145 470.87782631838684 L 1146 469.660168641931 L 1147 468.4307971163617 L 1148 467.189924579939 L 1149 465.93776586206576 L 1150 464.6745377460963 L 1151 463.4004589318038 L 1152 462.1157499975183 L 1153 460.8206333619374 L 1154 459.5153332456204 L 1155 458.2000756321693 L 1156 456.87508822910434 L 1157 455.5406004284422 L 1158 454.1968432669809 L 1159 452.844049386302 L 1160 451.48245299249345 L 1161 450.1122898156018 L 1162 448.7337970688214 L 1163 447.3472134074251 L 1164 445.9527788874479 L 1165 444.5507349241255 L 1166 443.1413242500991 L 1167 441.7247908733918 L 1168 440.301380035163 L 1169 438.87133816725196 L 1170 437.4349128495126 L 1171 435.992352766951 L 1172 434.5439076666702 L 1173 433.0898283146336 L 1174 431.63036645224935 L 1175 430.1657747527871 L 1176 428.6963067776338 L 1177 427.222216932394 L 1178 425.7437604228466 L 1179 424.2611932107609 L 1180 422.7747719695826 L 1181 421.28475403999676 L 1182 419.7913973853743 L 1183 418.2949605471124 L 1184 416.79570259987327 L 1185 415.29388310673113 L 1186 413.78976207423494 L 1187 412.28359990739324 L 1188 410.77565736459223 L 1189 409.26619551245 L 1190 407.75547568061967 L 1191 406.2437594165447 L 1192 404.7313084401792 L 1193 403.2183845986762 L 1194 401.7052498210547 L 1195 400.19216607285273 L 1196 398.6793953107733 L 1197 397.1671994373333 L 1198 395.65584025552033 L 1199 394.14557942346755 L 1200 392.6366784091534 L 1201 391.12939844513375 L 1202 389.6240004833163 L 1203 388.1207451497819 L 1204 386.61989269966307 L 1205 385.1217029720868 L 1206 383.62643534518855 L 1207 382.13434869120783 L 1208 380.64570133166933 L 1209 379.1607509926609 L 1210 377.67975476021314 L 1211 376.2029690357919 L 1212 374.7306494919073 L 1213 373.2630510278497 L 1214 371.8004277255603 L 1215 370.34303280564126 L 1216 368.8911185835175 L 1217 367.4449364257532 L 1218 366.00473670653344 L 1219 364.57076876431756 L 1220 363.1432808586716 L 1221 361.72252012728825 L 1222 360.30873254319886 L 1223 358.90216287219096 L 1224 357.50305463043117 L 1225 356.11165004230577 L 1226 354.7281899984856 L 1227 353.3529140142206 L 1228 351.98606018787336 L 1229 350.6278651596978 L 1230 349.27856407086995 L 1231 347.93839052277895 L 1232 346.6075765365828 L 1233 345.2863525130413 L 1234 343.9749471926256 L 1235 342.6735876159174 L 1236 341.38249908430214 L 1237 340.10190512096256 L 1238 338.83202743218123 L 1239 337.5730858689567 L 1240 336.3252983889417 L 1241 335.0888810187071 L 1242 333.864047816344 L 1243 332.65101083440277 L 1244 331.44998008318134 L 1245 330.26116349436666 L 1246 329.0847668850357 L 1247 327.9209939220233 L 1248 326.77004608666107 L 1249 325.63212263989624 L 1250 324.5074205877937 L 1251 323.3961346474279 L 1252 322.2984572131737 L 1253 321.2145783233964 L 1254 320.14468562755087 L 1255 319.0889643536947 L 1256 318.04759727641965 L 1257 317.0207646852087 L 1258 316.0086443532226 L 1259 315.0114115065228 L 1260 314.02923879373395 L 1261 313.0622962561554 L 1262 312.1107512983207 L 1263 311.1747686590162 L 1264 310.2545103827599 L 1265 309.35013579174694 L 1266 308.46180145826656 L 1267 307.58966117759536 L 1268 306.73386594137077 L 1269 305.8945639114506 L 1270 305.0719003942611 L 1271 304.2660178156419 L 1272 303.4770556961871 L 1273 302.70515062709086 L 1274 301.9504362464993 L 1275 301.21304321637433 L 1276 300.4930991998724 L 1277 299.79072883924243 L 1278 299.1060537342468 L 1279 298.43919242110877 L 1280 297.7902603519912 L 1281 297.15936987500817 L 1282 296.5466302147744 L 1283 295.95214745349557 L 1284 295.3760245126025 L 1285 294.8183611349327 L 1286 294.27925386746176 L 1287 293.75879604458896 L 1288 293.25707777197823 L 1289 292.77418591095784 L 1290 292.31020406348335 L 1291 291.86521255766297 L 1292 291.43928843385095 L 1293 291.0325054313095 L 1294 290.64493397544265 L 1295 290.2766411656037 L 1296 289.9276907634782 L 1297 289.5981431820455 L 1298 289.2880554751188 L 1299 288.9974813274686 L 1300 288.72647104552766 L 1301 288.47507154868157 L 1302 288.2433263611461 L 1303 288.03127560443164 L 1304 287.8389559903971 L 1305 287.66640081489425 L 1306 287.513639952003 L 1307 287.38069984885965 L 1308 287.26760352107794 L 1309 287.17437054876456 L 1310 287.1010170731292 L 1311 287.04755579369004 L 1312 287.01399596607524 L 1313 287.0003434004205 L 1314 287.006600460363 L 1315 287.0327660626324 L 1316 287.07883567723826 L 1317 287.1448013282543 L 1318 287.2306515951994 L 1319 287.33637161501457 L 1320 287.4619430846364 L 1321 287.60734426416565 L 1322 287.7725499806311 L 1323 287.9575316323477 L 1324 288.1622571938682 L 1325 288.3866912215279 L 1326 288.6307948595805 L 1327 288.8945258469257 L 1328 289.17783852442534 L 1329 289.4806838428081 L 1330 289.80300937116186 L 1331 290.1447593060105 L 1332 290.50587448097514 L 1333 290.88629237701747 L 1334 291.2859471332637 L 1335 291.70476955840644 L 1336 292.14268714268445 L 1337 292.59962407043514 L 1338 293.075501233221 L 1339 293.5702362435252 L 1340 294.08374344901523 L 1341 294.6159339473717 L 1342 295.16671560167964 L 1343 295.7359930563804 L 1344 296.3236677537796 L 1345 296.9296379511108 L 1346 297.5537987381502 L 1347 298.1960420553785 L 1348 298.8562567126899 L 1349 299.53432840864184 L 1350 300.2301397502439 L 1351 300.94357027328147 L 1352 301.6744964631719 L 1353 302.4227917763479 L 1354 303.18832666216565 L 1355 303.9709685853346 L 1356 304.77058204886146 L 1357 305.58702861750953 L 1358 306.4201669417654 L 1359 307.2698527823105 L 1360 308.13593903499293 L 1361 309.0182757562951 L 1362 309.9167101892932 L 1363 310.83108679010394 L 1364 311.76124725481264 L 1365 312.70703054688164 L 1366 313.66827292502836 L 1367 314.6448079715745 L 1368 315.6364666212572 L 1369 316.6430771904993 L 1370 317.66446540713207 L 1371 318.7004544405666 L 1372 319.75086493240855 L 1373 320.81551502750915 L 1374 321.8942204054508 L 1375 322.9867943124566 L 1376 324.09304759372304 L 1377 325.21278872616836 L 1378 326.34582385159 L 1379 327.4919568102272 L 1380 328.65098917472136 L 1381 329.8227202844696 L 1382 331.0069472803644 L 1383 332.203465139914 L 1384 333.41206671273875 L 1385 334.63254275643254 L 1386 335.86468197278975 L 1387 337.10827104438664 L 1388 338.3630946715124 L 1389 339.6289356094434 L 1390 340.9055747060545 L 1391 342.1927909397602 L 1392 343.49036145777916 L 1393 344.7980616147179 L 1394 346.11566501146064 L 1395 347.44294353436703 L 1396 348.7796673947643 L 1397 350.1256051687302 L 1398 351.4805238371589 L 1399 352.8441888261029 L 1400 354.21636404738445 L 1401 355.59681193946886 L 1402 356.98529350859263 L 1403 358.3815683701415 L 1404 359.78539479026506 L 1405 361.1965297277296 L 1406 362.61472887599456 L 1407 364.0397467055087 L 1408 365.47133650621845 L 1409 366.90925043027977 L 1410 368.3532395349679 L 1411 369.8030538257755 L 1412 371.25844229969556 L 1413 372.71915298867424 L 1414 374.1849330032353 L 1415 375.6555285762618 L 1416 377.13068510693046 L 1417 378.61014720478966 L 1418 380.09365873397496 L 1419 381.58096285755323 L 1420 383.07180208198815 L 1421 384.56591830171925 L 1422 386.0630528438484 L 1423 387.5629465129213 L 1424 389.0653396358027 L 1425 390.56997210663246 L 1426 392.07658343185756 L 1427 393.5849127753304 L 1428 395.09469900346676 L 1429 396.60568073045533 L 1430 398.11759636351064 L 1431 399.63018414816315 L 1432 401.1431822135743 L 1433 402.6563286178747 L 1434 404.1693613935136 L 1435 405.68201859261256 L 1436 407.1940383323156 L 1437 408.7051588401288 L 1438 410.21511849924013 L 1439 411.7236558938127 L 1440 413.2305098542425 L 1441 414.73541950237575 L 1442 416.2381242966719 L 1443 417.7383640773121 L 1444 419.2358791112395 L 1445 420.73041013712646 L 1446 422.22169841025965 L 1447 423.70948574733626 L 1448 425.1935145711623 L 1449 426.6735279552462 L 1450 428.1492696682814 L 1451 429.6204842185047 L 1452 431.0869168979307 L 1453 432.5483138264479 L 1454 434.0044219957732 L 1455 435.454989313254 L 1456 436.8997646455125 L 1457 438.33849786192417 L 1458 439.77093987792193 L 1459 441.1968426981194 L 1460 442.6159594592473 L 1461 444.0280444728898 L 1462 445.432853268022 L 1463 446.83014263333354 L 1464 448.21967065933603 L 1465 449.6011967802436 L 1466 450.97448181562186 L 1467 452.3392880117966 L 1468 453.69537908301515 L 1469 455.04252025235536 L 1470 456.3804782923699 L 1471 457.70902156546583 L 1472 459.0279200640072 L 1473 460.3369454501356 L 1474 461.63587109530175 L 1475 462.9244721195014 L 1476 464.2025254302079 L 1477 465.4698097609963 L 1478 466.72610570984966 L 1479 467.97119577714557 L 1480 469.20486440330876 L 1481 470.4268980061323 L 1482 471.6370850177541 L 1483 472.83521592128494 L 1484 474.02108328708186 L 1485 475.19448180866 L 1486 476.3552083382367 L 1487 477.50306192190186 L 1488 478.63784383440964 L 1489 479.75935761358176 L 1490 480.86740909432143 L 1491 481.9618064422287 L 1492 483.04236018681206 L 1493 484.1088832542913 L 1494 485.1611909999849 L 1495 486.1991012402773 L 1496 487.22243428415976 L 1497 488.2310129643399 L 1498 489.224662667915 L 1499 490.20321136660095 L 1500 491.166489646516 L 1501 492.11433073751084 L 1502 493.0465705420412 L 1503 493.96304766357747 L 1504 494.8636034345471 L 1505 495.74808194380427 L 1506 496.61633006362223 L 1507 497.4681974762048 L 1508 498.30353669970924 L 1509 499.1222031137804 L 1510 499.92405498458805 L 1511 500.7089534893653 L 1512 501.47676274044227 L 1513 502.2273498087724 L 1514 502.9605847469457 L 1515 503.6763406116867 L 1516 504.3744934858315 L 1517 505.0549224997817 L 1518 505.71750985242966 L 1519 506.3621408315536 L 1520 506.98870383367716 L 1521 507.59709038339145 L 1522 508.18719515213473 L 1523 508.75891597642794 L 1524 509.31215387556205 L 1525 509.8468130687339 L 1526 510.3628009916297 L 1527 510.8600283124487 L 1528 511.33840894737074 L 1529 511.7978600754584 L 1530 512.2383021529965 L 1531 512.6596589272631 L 1532 513.0618574497303 L 1533 513.4448280886946 L 1534 513.8085045413318 L 1535 514.1528238451754 L 1536 514.4777263890176 L 1537 514.7831559232296 L 1538 515.0690595694999 L 1539 515.3353878299888" stroke-linecap="round" stroke-linejoin="round" stroke-miterlimit="10" stroke-width="16"/></g></svg>